<svg width="591" height="737" viewBox="0 0 591 737" fill="none" xmlns="http://www.w3.org/2000/svg">
<path d="M160.121 37.5C167.121 28 256.621 -3.05176e-05 261.496 0H295.621V156V736.5C295.621 736.5 188.121 649.5 0.62132 640C-4.87875 632 27.6211 484.5 39.6213 479C155.121 503 179.121 465 179.121 465C228.621 370 228.621 156 228.621 156C228.621 107.5 163.621 99 160.121 94C156.621 89 153.121 47 160.121 37.5Z" fill="#DF1CC8"/>
<path d="M430.621 37.5255C423.621 28.019 334.121 -3.05383e-05 329.246 0H295.121V156.106V737C295.121 737 402.621 649.941 590.12 640.434C595.62 632.429 563.12 484.829 551.12 479.325C435.621 503.341 411.621 465.316 411.621 465.316C362.121 370.251 362.121 156.106 362.121 156.106C362.121 107.573 427.121 99.0672 430.621 94.0638C434.121 89.0604 437.621 47.0319 430.621 37.5255Z" fill="#1A38D1"/>
<path d="M91.9405 621.063C57.7987 611.915 37.5374 576.821 46.6857 542.68L53.5665 517L103.545 530.392C137.686 539.54 157.948 574.633 148.799 608.775L141.919 634.455L91.9405 621.063Z" fill="#1A38D1"/>
<path d="M260.719 65.4088C237.081 88.4923 199.205 88.0421 176.121 64.4033V64.4033L188.007 52.7964C211.646 29.7129 249.522 30.163 272.606 53.8018V53.8018L260.719 65.4088Z" fill="#1A38D1"/>
<path d="M332.509 40.9121C361.122 24.3921 397.71 34.1958 414.23 62.8093V62.8093L399.843 71.1159C371.229 87.6359 334.641 77.8322 318.121 49.2187V49.2187L332.509 40.9121Z" fill="#DF1CC8"/>
<path d="M438.513 578.819C447.661 544.677 482.755 524.416 516.897 533.564L542.576 540.445L529.185 590.423C520.036 624.565 484.943 644.826 450.801 635.678L425.121 628.797L438.513 578.819Z" fill="#DF1CC8"/>
<circle cx="295.121" cy="568" r="119" fill="#1A38D1"/>
<path d="M260.682 518C211.682 530.5 208.182 606.5 262.753 618H336.182V578.5H251.682V558H357.182V638.5H262.753C177.682 630 176.182 506.5 260.682 498H357.182V518H260.682Z" fill="#DF1CC8"/>
</svg>
